<?xml version="1.0" encoding="utf-8"?>
<?xml-stylesheet type="text/xsl" href="rss1.xsl"?>
<rss version="2.0" xmlns:atom="http://www.w3.org/2005/Atom" xmlns:content="http://purl.org/rss/1.0/modules/content/" xmlns:dc="http://purl.org/dc/elements/1.1/" xmlns:media="http://search.yahoo.com/mrss/">
<channel>
 <title>Getty</title>
 <link>http://www.gettyimg.com/</link>
 <atom:link href="http://www.gettyimg.com/" rel="self" type="application/rss+xml" />

 
                <item>
                <title><![CDATA[【MASTER &amp; MASTER RIP】MASTER - Zara Larsson, David Guetta - On My Love (Master 1080)]]></title>
                <link><![CDATA[https://sharemania.us/threads/zara-larsson-david-guetta-on-my-love-master-1080.230404/]]></link>
                <description><![CDATA[<article>
<blockquote class="messageText SelectQuoteContainer ugc baseHtml">
<div style="text-align: center"><img src="https://i.imgur.com/NmxGWxY.gif" class="bbCodeImage LbImage" alt="[​IMG]" data-url="https://i.imgur.com/NmxGWxY.gif" style=""><br>
​</div>
<div class="ToggleTriggerAnchor bbCodeSpoilerContainer">
<button type="button" class="button bbCodeSpoilerButton ToggleTrigger Tooltip JsOnly" data-target="> .SpoilerTarget"><span>Spoiler: <span class="SpoilerTitle">MASTER</span></span></button>
<div class="SpoilerTarget bbCodeSpoilerText">
<div class="bbCodeBlock bbCodeCode">
<div class="type">Code:</div>
<pre>Format                                   : MPEG-4
Format profile                           : QuickTime
Codec ID                                 : qt   0000.00 (qt  )
File size                                : 1 013 MiB
Duration                                 : 3 min 57 s
Overall bit rate mode                    : Variable
Overall bit rate                         : 35.7 Mb/s
Movie name                               : OML
Encoded date                             : UTC 2023-10-12 19:23:56
Tagged date                              : UTC 2023-10-12 19:24:10
Writing library                          : Apple QuickTime
com.apple.quicktime.keywords             : 7-09-2023
com.apple.quicktime.author               : Nikita Popkovs
com.apple.quicktime.title                : OML

Video
ID                                       : 2
Format                                   : ProRes
Format version                           : Version 0
Format profile                           : 422 Proxy
Codec ID                                 : apco
Duration                                 : 3 min 57 s
Bit rate mode                            : Variable
Bit rate                                 : 33.5 Mb/s
Width                                    : 1 920 pixels
Height                                   : 1 080 pixels
Display aspect ratio                     : 16:9
Frame rate mode                          : Constant
Frame rate                               : 25.000 FPS
Color space                              : YUV
Chroma subsampling                       : 4:2:2
Scan type                                : Progressive
Bits/(Pixel*Frame)                       : 0.647
Stream size                              : 951 MiB (94%)
Title                                    : Core Media Video
Writing library                          : Apple
Encoded date                             : UTC 2023-10-12 19:23:56
Tagged date                              : UTC 2023-10-12 19:24:10
Color primaries                          : BT.709
Transfer characteristics                 : BT.709
Matrix coefficients                      : BT.709

Audio
ID                                       : 1
Format                                   : PCM
Format settings                          : Little / Signed
Codec ID                                 : lpcm
Duration                                 : 3 min 57 s
Bit rate mode                            : Constant
Bit rate                                 : 2 117 kb/s
Channel(s)                               : 2 channels
Channel layout                           : L R
Sampling rate                            : 44.1 kHz
Bit depth                                : 24 bits
Stream size                              : 60.0 MiB (6%)
Title                                    : Core Media Audio
Encoded date                             : UTC 2023-10-12 19:23:56
Tagged date                              : UTC 2023-10-12 19:24:10

Other
ID                                       : 3
Type                                     : Time code
Format                                   : QuickTime TC
Duration                                 : 3 min 57 s
Frame rate                               : 25.000 FPS
Time code of first frame                 : 00:00:00:00
Time code, striped                       : Yes
Title                                    : Core Media Time Code
Encoded date                             : UTC 2023-10-12 19:23:56
Tagged date                              : UTC 2023-10-12 19:24:10</pre>
</div><div style="text-align: center">​</div></div>
</div><div style="text-align: center"><br>
<div class="bbCodeBlock bbCodeVfcHH HiddenContent">
<div class="attribution type">Hidden Content:</div>
<blockquote>You must reply before you can see the hidden data contained here.</blockquote>
</div></div>
<div class="messageTextEndMarker">&nbsp;</div>
</blockquote>
</article>]]></description>
                <author><![CDATA[fstambuk]]></author>
                </item>

                </channel></rss>